<svg xmlns="http://www.w3.org/2000/svg" width="1200" height="760" viewBox="0 0 1200 760">
<rect width="100%" height="100%" fill="white"/>
<style>
text{font-family:Arial,Helvetica,sans-serif;fill:#111}.title{font-size:27px;font-weight:700}.panel{font-size:21px;font-weight:700}.label{font-size:17px}.small{font-size:14px}.axis{stroke:#222;stroke-width:2}.thin{stroke:#555;stroke-width:1.4}.dash{stroke:#777;stroke-width:1.5;stroke-dasharray:6 6}.light{fill:#e6e6e6;stroke:#444;stroke-width:1.2}.dark{fill:#4f4f4f}.point{fill:#111}.open{fill:white;stroke:#111;stroke-width:2}
</style><text x="50" y="55" class="title" text-anchor="start">Figure 4. Hydrological buffering is strong but finite and heterogeneous</text><text x="50" y="105" class="panel" text-anchor="start">Extreme-condition retention versus within-bird local mismatch threshold</text><line x1="120" y1="610" x2="1050" y2="610" class="axis"/><line x1="120" y1="170" x2="120" y2="610" class="axis"/><line x1="120" y1="552.6086956521739" x2="1050" y2="552.6086956521739" class="dash"/><line x1="120" y1="610" x2="120" y2="620" class="thin"/><text x="120" y="645" class="small" text-anchor="middle">0</text><line x1="287.27272727272725" y1="610" x2="287.27272727272725" y2="620" class="thin"/><text x="287.27272727272725" y="645" class="small" text-anchor="middle">10</text><line x1="454.54545454545456" y1="610" x2="454.54545454545456" y2="620" class="thin"/><text x="454.54545454545456" y="645" class="small" text-anchor="middle">20</text><line x1="621.8181818181818" y1="610" x2="621.8181818181818" y2="620" class="thin"/><text x="621.8181818181818" y="645" class="small" text-anchor="middle">30</text><line x1="789.0909090909091" y1="610" x2="789.0909090909091" y2="620" class="thin"/><text x="789.0909090909091" y="645" class="small" text-anchor="middle">40</text><line x1="956.3636363636364" y1="610" x2="956.3636363636364" y2="620" class="thin"/><text x="956.3636363636364" y="645" class="small" text-anchor="middle">50</text><line x1="110" y1="552.6086956521739" x2="120" y2="552.6086956521739" class="thin"/><text x="100" y="557.6086956521739" class="small" text-anchor="end">0.00</text><line x1="110" y1="456.9565217391304" x2="120" y2="456.9565217391304" class="thin"/><text x="100" y="461.9565217391304" class="small" text-anchor="end">0.25</text><line x1="110" y1="361.30434782608694" x2="120" y2="361.30434782608694" class="thin"/><text x="100" y="366.30434782608694" class="small" text-anchor="end">0.50</text><line x1="110" y1="265.65217391304344" x2="120" y2="265.65217391304344" class="thin"/><text x="100" y="270.65217391304344" class="small" text-anchor="end">0.75</text><line x1="110" y1="170" x2="120" y2="170" class="thin"/><text x="100" y="175" class="small" text-anchor="end">1.00</text><circle cx="523.1272727272728" cy="247.76988521739128" r="7" class="point"/><text x="533.1272727272728" y="239.76988521739128" class="small" text-anchor="start">020_21</text><circle cx="352.5090909090909" cy="354.3575513043478" r="7" class="point"/><text x="362.5090909090909" y="346.3575513043478" class="small" text-anchor="start">332_20</text><circle cx="330.76363636363635" cy="205.0099582608695" r="7" class="point"/><text x="340.76363636363635" y="197.0099582608695" class="small" text-anchor="start">332_21</text><circle cx="226.63636363636363" cy="247.18812869565215" r="7" class="point"/><text x="236.63636363636363" y="239.18812869565215" class="small" text-anchor="start">361_21</text><circle cx="358.3636363636364" cy="324.2072973913043" r="7" class="point"/><text x="368.3636363636364" y="316.2072973913043" class="small" text-anchor="start">368_21</text><circle cx="302.3272727272727" cy="337.2329426086956" r="7" class="point"/><text x="312.3272727272727" y="329.2329426086956" class="small" text-anchor="start">390_21</text><circle cx="291.4545454545455" cy="470.0088730434783" r="7" class="point"/><text x="301.4545454545455" y="462.0088730434783" class="small" text-anchor="start">506_20</text><circle cx="626.8363636363636" cy="299.7351478260869" r="7" class="point"/><text x="636.8363636363636" y="291.7351478260869" class="small" text-anchor="start">856_20</text><circle cx="937.9636363636363" cy="211.84782608695656" r="7" class="point"/><text x="947.9636363636363" y="203.84782608695656" class="small" text-anchor="start">871_21</text><circle cx="647.7454545454545" cy="565.9071791304348" r="7" class="open"/><text x="657.7454545454545" y="557.9071791304348" class="small" text-anchor="start">881_20</text><text x="585" y="690" class="label" text-anchor="middle">Top-quartile local availability mismatch threshold (cm)</text><text x="32" y="390" class="label" text-anchor="middle" transform="rotate(-90 32 390)">Extreme-condition retention</text><text x="585" y="730" class="label" text-anchor="middle">9/10 positive; median extreme retention = 0.629. No universal relocation threshold is inferred.</text></svg>